<?xml version="1.0" standalone="no"?>
<!DOCTYPE svg PUBLIC "-//W3C//DTD SVG 20010904//EN"
 "http://www.w3.org/TR/2001/REC-SVG-20010904/DTD/svg10.dtd">
<svg version="1.0" xmlns="http://www.w3.org/2000/svg"
 width="264.000000pt" height="264.000000pt" viewBox="0 0 264.000000 264.000000"
 preserveAspectRatio="xMidYMid meet">
<metadata>
Created by potrace 1.14, written by Peter Selinger 2001-2017
</metadata>
<g transform="translate(0.000000,264.000000) scale(0.100000,-0.100000)"
fill="#000000" stroke="none">
<path d="M1257 2574 c-4 -4 -7 -33 -7 -65 l0 -58 -32 -3 c-29 -3 -33 -7 -36
-35 l-3 -33 -65 0 -64 0 0 -35 0 -35 -95 0 -95 0 0 -28 0 -29 -104 -6 c-57 -4
-147 -4 -200 0 l-96 6 0 -101 0 -101 33 -3 c28 -3 32 -7 35 -35 l3 -33 95 0
94 0 0 -165 0 -165 -30 0 -30 0 0 -65 0 -64 -67 -3 c-66 -3 -68 -4 -71 -30 -3
-27 -5 -28 -63 -28 -59 0 -59 0 -59 30 l0 30 -70 0 -70 0 0 -100 0 -100 35 0
c33 0 35 -2 35 -35 l0 -35 95 0 95 0 0 -165 0 -165 -30 0 c-30 0 -30 0 -30
-59 l0 -59 -65 -7 c-63 -7 -65 -8 -65 -36 0 -29 0 -29 -65 -29 l-65 0 0 30 0
30 -70 0 -70 0 0 -47 c0 -27 3 -72 6 -100 6 -50 8 -53 35 -53 26 0 29 -4 29
-30 l0 -30 100 0 100 0 0 -235 0 -235 990 0 990 0 0 235 0 235 100 0 100 0 0
30 c0 26 3 30 29 30 27 0 29 3 35 53 3 28 6 73 6 100 l0 47 -70 0 -70 0 0 -30
0 -30 -65 0 -65 0 0 29 c0 29 -1 30 -65 36 l-65 7 0 59 0 58 -32 3 -33 3 -3
163 -2 162 100 0 100 0 0 35 c0 33 2 35 35 35 l35 0 0 100 0 100 -70 0 -70 0
0 -30 0 -30 -65 0 -65 0 0 30 0 30 -65 0 -65 0 0 65 0 65 -30 0 -30 0 0 165 0
165 94 0 95 0 3 33 c3 28 7 32 36 35 l33 3 -3 97 -3 97 -125 0 c-69 0 -158 1
-197 3 l-73 2 0 30 0 30 -95 0 -95 0 0 35 0 35 -65 0 -65 0 0 30 c0 28 -3 30
-35 30 l-34 0 -3 68 -3 67 -60 3 c-34 2 -64 0 -68 -4z m583 -759 l0 -165 -520
0 -520 0 0 165 0 165 520 0 520 0 0 -165z m200 -725 l0 -160 -720 0 -720 0 0
160 0 160 720 0 720 0 0 -160z m200 -760 l0 -190 -295 0 -295 0 0 130 0 130
-330 0 -330 0 0 -130 0 -130 -295 0 -295 0 0 190 0 190 920 0 920 0 0 -190z"/>
<path d="M990 1815 l0 -105 65 0 65 0 0 105 0 105 -65 0 -65 0 0 -105z"/>
<path d="M1514 1907 c-3 -8 -4 -54 -2 -103 l3 -89 68 -3 67 -3 0 106 0 105
-65 0 c-45 0 -67 -4 -71 -13z"/>
<path d="M990 1090 l0 -100 65 0 65 0 0 100 0 100 -65 0 -65 0 0 -100z"/>
<path d="M1510 1090 l0 -100 70 0 70 0 0 100 0 100 -70 0 -70 0 0 -100z"/>
</g>
</svg>
